<svg width="46" height="46" viewBox="0 0 46 46" fill="none" xmlns="http://www.w3.org/2000/svg">
<path d="M23 0.441406C10.5612 0.441406 0.441406 10.5612 0.441406 23C0.441406 35.4388 10.5612 45.5586 23 45.5586C35.4388 45.5586 45.5586 35.4388 45.5586 23C45.5586 10.5612 35.4388 0.441406 23 0.441406ZM29.1523 37.3555H25.0508V39.4062C25.0508 40.5398 24.1335 41.457 23 41.457C21.8665 41.457 20.9492 40.5398 20.9492 39.4062V37.3555H14.7969C13.6633 37.3555 12.7461 36.4382 12.7461 35.3047C12.7461 34.1712 13.6633 33.2539 14.7969 33.2539H16.8477C16.8477 32.6322 16.8477 13.9178 16.8477 12.7461H14.7969C13.6633 12.7461 12.7461 11.8288 12.7461 10.6953C12.7461 9.56178 13.6633 8.64453 14.7969 8.64453H18.8984H20.9492V6.59375C20.9492 5.46021 21.8665 4.54297 23 4.54297C24.1335 4.54297 25.0508 5.46021 25.0508 6.59375V8.64453C29.5749 8.64453 33.2539 12.3235 33.2539 16.8477C33.2539 18.5482 32.7334 20.1289 31.8442 21.4399C35.0423 22.5602 37.3555 25.5761 37.3555 29.1523C37.3555 33.6765 33.6765 37.3555 29.1523 37.3555Z" fill="url(#paint0_linear)"/>
<defs>
<linearGradient id="paint0_linear" x1="0.441406" y1="12.974" x2="45.5587" y2="12.9601" gradientUnits="userSpaceOnUse">
<stop stop-color="#AE8625"/>
<stop offset="0.442708" stop-color="#F7EF8A"/>
<stop offset="0.697917" stop-color="#D2AC47"/>
<stop offset="1" stop-color="#F4D63B"/>
</linearGradient>
</defs>
</svg>
