<svg width="31" height="25" viewBox="0 0 31 25" fill="none" xmlns="http://www.w3.org/2000/svg">
<path d="M28.4121 6.69696H27.5701V15.952C27.5701 17.393 26.7321 18.697 25.0491 18.697H8.57007V19.137C8.57007 20.411 10.0191 21.697 11.5071 21.697H24.1081L28.9271 24.531L28.2271 21.697H28.4131C29.8991 21.697 30.5711 20.413 30.5711 19.137V8.89396C30.5701 7.61996 29.8981 6.69696 28.4121 6.69696Z" fill="white"/>
<path d="M8.76 17.04H22.762C24.446 17.04 26 16.019 26 14.578V5.19198V2.97798C26 1.53598 24.445 0.039978 22.762 0.039978H3.622C1.938 0.039978 0 1.53598 0 2.97798V14.578C0 15.906 1.642 16.865 3.217 17.013L2.192 20.904L8.76 17.04ZM2 2.97798C2.081 2.72698 2.925 2.03998 3.622 2.03998H22.762C23.411 2.03998 24 2.71498 24 2.97798V14.578C23.952 14.692 23.492 15.04 22.762 15.04H3.622C2.875 15.04 2.192 14.69 2 14.47V2.97798Z" fill="white"/>
</svg>
